<?xml version="1.0" encoding="UTF-8" standalone="no"?>
<!-- Created with Inkscape (http://www.inkscape.org/) -->

<svg
   width="273.30765mm"
   height="167.11722mm"
   viewBox="0 0 273.30765 167.11722"
   version="1.1"
   id="svg1"
   inkscape:export-filename="circle5.svg"
   inkscape:export-xdpi="96"
   inkscape:export-ydpi="96"
   xmlns:inkscape="http://www.inkscape.org/namespaces/inkscape"
   xmlns:sodipodi="http://sodipodi.sourceforge.net/DTD/sodipodi-0.dtd"
   xmlns="http://www.w3.org/2000/svg"
   xmlns:svg="http://www.w3.org/2000/svg">
  <sodipodi:namedview
     id="namedview1"
     pagecolor="#ffffff"
     bordercolor="#000000"
     borderopacity="0.25"
     inkscape:showpageshadow="2"
     inkscape:pageopacity="0.0"
     inkscape:pagecheckerboard="0"
     inkscape:deskcolor="#d1d1d1"
     inkscape:document-units="mm">
    <inkscape:page
       x="-1.4006926e-23"
       y="0"
       width="273.30765"
       height="167.11722"
       id="page2"
       margin="0"
       bleed="0" />
  </sodipodi:namedview>
  <defs
     id="defs1" />
  <g
     inkscape:label="Layer 1"
     inkscape:groupmode="layer"
     id="layer1"
     style="display:none"
     transform="translate(-6.9045245,-22.952456)">
    <path
       d="m 180.21747,165.52816 c 53.23025,-3.82796 91.56428,-18.54197 102.51226,-39.34786 4.41663,-8.39345 4.0516,-20.67915 -0.91489,-30.794028 -9.82194,-20.00369 -39.07446,-39.638214 -74.23541,-49.827466 -28.92541,-8.382232 -35.8689,-9.248551 -74.12855,-9.248551 -38.800685,0 -51.220983,1.623896 -72.364978,9.46123 -10.915293,4.045915 -13.388352,6.256232 -11.099853,9.920704 1.38008,2.20986 0.55817,3.035617 -7.458259,7.493213 C 30.079564,70.10729 17.737332,82.86443 14.730522,91.91704 2.7150407,128.0923 54.08824,159.97779 133.45088,165.60255 c 21.46551,1.52137 24.64765,1.51631 46.76659,-0.0746 z m -63.43128,-8.59551 C 80.354632,152.15689 48.600367,140.52512 33.173055,126.30471 3.2893998,98.758942 27.763809,67.884973 90.246953,54.307141 106.19789,50.840937 127.5764,49.524833 137.47501,51.399724 c 5.48527,1.038958 7.79516,0.99211 9.00576,-0.182506 2.46856,-2.395265 0.40963,-4.385037 -6.99373,-6.759264 l -6.70685,-2.150832 16.58279,0.643804 c 47.11956,1.829427 97.00867,20.62069 118.25983,44.543771 7.5682,8.519681 10.63099,15.525213 10.66698,24.398723 0.0655,16.06028 -13.21499,27.60397 -42.22384,36.70282 -9.63549,3.02223 -36.70785,8.25848 -48.96013,9.46965 -13.98626,1.38257 -56.33365,0.70013 -70.31963,-1.13329 z M 58.983067,54.367064 c 0.910579,-1.473322 13.468787,-5.456333 16.696843,-5.295614 1.157176,0.05781 -1.819575,1.519502 -6.614974,3.248687 -10.004149,3.607399 -11.195796,3.849324 -10.081869,2.046927 z"
       style="fill:#000000;stroke-width:5.06976"
       id="path1" />
  </g>
  <g
     inkscape:groupmode="layer"
     id="layer2"
     inkscape:label="Layer 2"
     style="display:none"
     transform="translate(-6.9045245,-22.952456)">
    <path
       d="m 149.22689,162.87605 c 30.17019,-3.40997 54.32119,-7.69298 77.56255,-13.75522 28.86691,-7.52957 43.7567,-15.55936 50.31954,-27.13641 7.2967,-12.87165 3.73758,-30.462099 -8.32273,-41.13365 -15.23515,-13.480811 -36.96929,-21.227409 -60.33927,-21.506448 -16.63242,-0.198579 -17.29439,-0.05632 -17.29439,3.714432 0,3.661403 0.93662,4.009269 14.14996,5.255503 33.49399,3.159029 58.35013,14.420335 67.34318,30.510484 3.50334,6.268159 3.63269,10.263559 0.50976,15.751029 -6.73864,11.84089 -23.24821,19.32479 -58.94376,26.71965 -52.74933,10.9278 -70.22728,13.06417 -106.91059,13.06792 -32.958207,0.004 -46.340621,-2.14978 -63.862745,-10.27523 -13.247248,-6.14309 -19.464601,-13.61264 -19.464601,-23.38485 0,-12.54301 16.672189,-30.794136 42.793233,-46.845955 C 106.53056,49.421922 156.60222,36.68113 202.68217,39.273531 c 24.88286,1.399878 40.5966,4.353845 68.81759,12.936784 23.39795,7.11609 24.99122,7.255628 24.99122,2.188804 0,-4.3835 -1.77014,-5.235059 -28.82393,-13.866433 C 202.40285,19.710491 130.33313,26.68871 72.18836,59.460075 47.753363,73.232058 26.950614,92.289051 21.344121,106.03752 c -6.552178,16.06761 -3.740871,28.9018 8.949233,40.85498 17.829774,16.79431 60.739118,22.5609 118.933536,15.98355 z"
       style="fill:#000000;stroke-width:5.41785"
       id="path1-6" />
  </g>
  <g
     inkscape:groupmode="layer"
     id="layer3"
     inkscape:label="Layer 3"
     style="display:none"
     transform="translate(-6.9045245,-22.952456)">
    <path
       d="m 202.0582,170.50496 c 35.84943,-3.85465 62.19335,-14.88954 76.26783,-31.94699 C 312.12461,97.596016 261.15414,39.835332 178.82354,25.799789 129.64254,17.415573 72.117092,25.020181 32.117173,45.193802 c -7.945239,4.007121 -10.775241,7.232975 -8.948406,10.200125 1.019062,1.655098 3.077029,1.150412 10.786131,-2.645174 27.521444,-13.550152 66.806422,-21.655834 104.957762,-21.655834 40.62056,0 75.71025,9.018401 103.3347,26.557916 23.6852,15.038403 37.70235,32.245758 40.49104,49.706495 2.39719,15.00982 -13.06641,34.43568 -34.76825,43.67691 C 206.18002,168.82962 124.92278,166.96222 67.297224,146.88212 28.798124,133.4668 11.321512,106.93729 27.779635,86.894354 40.311722,71.632635 73.639426,56.612404 103.89178,52.591908 c 13.75752,-1.828337 15.10255,-2.282359 15.10255,-5.097635 0,-2.899084 -0.7716,-3.075994 -12.45718,-2.856529 -20.057313,0.376427 -45.565312,9.2368 -68.974288,23.957906 -20.49028,12.885655 -26.862164,29.572877 -19.111744,50.05132 11.24049,29.7002 69.016209,50.49806 145.850762,52.50271 14.05697,0.36696 31.04731,0.0769 37.75632,-0.64472 z"
       style="fill:#000000;stroke-width:5.09782"
       id="path1-3" />
  </g>
  <g
     inkscape:groupmode="layer"
     id="layer4"
     inkscape:label="Layer 4"
     style="display:none"
     transform="translate(-6.9045245,-22.952456)">
    <path
       d="m 189.67762,181.76128 c 20.21125,-2.10587 51.43216,-9.53891 64.21848,-15.28908 5.24332,-2.358 13.69129,-7.59404 18.77319,-11.63562 19.50883,-15.51506 24.24864,-35.61595 13.44454,-57.015973 C 268.86904,63.663372 206.22447,33.530578 141.80968,28.408604 110.64896,25.930843 63.170145,33.890962 42.254695,45.099615 22.185845,55.85458 12.34,66.925536 18.70499,71.579558 c 1.156429,0.845599 0.638668,2.768176 -1.480454,5.497055 C 5.4630006,92.222607 3.639394,109.49732 11.984781,126.71302 31.150769,166.25069 108.51491,190.21766 189.67762,181.76128 Z M 107.07396,168.49065 C 62.325546,160.66208 28.179611,141.69409 18.523504,119.30113 14.564023,110.11885 14.418172,103.56388 17.97586,94.693716 26.111628,74.409747 62.287474,55.976989 92.187164,56.880711 c 15.306856,0.462637 15.713766,0.38786 15.713766,-2.889008 0,-4.698014 -3.37633,-5.786952 -21.496664,-6.933206 L 69.03,45.959439 81.435582,43.068567 c 8.657845,-2.017541 22.899408,-2.861264 47.141368,-2.792834 37.39834,0.105544 51.7772,2.523122 82.32932,13.842334 39.79355,14.74302 72.3273,43.971121 72.3273,64.978273 0,23.74095 -33.54615,44.19494 -83.82058,51.10765 -22.7795,3.13218 -69.60897,2.26327 -92.33909,-1.71334 z"
       style="fill:#000000;stroke-width:6.79991"
       id="path1-68" />
  </g>
  <g
     inkscape:groupmode="layer"
     id="layer5"
     inkscape:label="Layer 5"
     style="display:none"
     transform="translate(-6.9045245,-22.952456)">
    <path
       d="m 174.22893,183.01887 c 46.82737,-3.36196 81.43084,-14.57672 99.93353,-32.38781 23.09483,-22.2316 18.3161,-54.536997 -11.65805,-78.812166 -36.24082,-29.350291 -86.07809,-45.307093 -141.48312,-45.299819 -41.70295,0.0055 -78.01557,8.933042 -70.419998,17.312875 0.928026,1.023928 9.390634,0.162944 20.729629,-2.109034 10.538749,-2.11158 21.123982,-3.549706 23.522674,-3.195812 4.205688,0.620496 4.174567,0.693239 -0.872246,2.043347 C 82.316507,43.690829 44.572848,58.08024 36.412417,62.518137 10.071115,76.843244 -0.70117394,105.75402 11.652089,128.96969 c 12.965661,24.36653 49.024697,43.09141 96.945461,50.34242 19.6361,2.97119 51.11402,4.74895 65.63138,3.70676 z M 107.66497,168.86173 C 86.750856,165.90509 67.956137,160.02209 51.480922,151.27534 33.776427,141.87587 23.222908,131.55359 18.232601,118.75542 15.012961,110.49831 14.755223,108.04346 16.400285,101.30325 20.486831,84.559952 37.080068,70.907862 66.069095,60.4382 102.59897,47.245118 133.28976,43.058911 171.61219,46.042314 c 25.81442,2.009668 38.66364,5.64652 58.44118,16.541291 56.4131,31.075968 65.49035,67.321195 22.67865,90.554975 -35.42548,19.22528 -83.4636,24.43192 -145.06705,15.72315 z"
       style="fill:#000000;stroke-width:6.9255"
       id="path1-1" />
  </g>
  <g
     inkscape:groupmode="layer"
     id="layer6"
     inkscape:label="Layer 6"
     transform="translate(-6.9045245,-22.952456)">
    <path
       d="m 181.92363,188.33642 c 37.56138,-4.61565 61.56271,-14.95725 78.48553,-33.81754 l 6.24932,-6.96481 1.36015,5.46542 c 1.58646,6.37477 2.91464,7.54649 7.30634,6.44577 5.48364,-1.37436 6.37205,-13.84362 2.56705,-36.02794 -5.88739,-34.325458 -13.29005,-49.337043 -33.41141,-67.75393 -18.77454,-17.184054 -48.63509,-30.7419 -71.39866,-32.417703 -8.97714,-0.660876 -10.12727,-0.419172 -10.12727,2.128425 0,2.122548 2.47975,3.352157 9.48447,4.702879 29.92652,5.77077 57.1496,21.744116 73.26936,42.991234 10.64785,14.03478 10.69542,17.728477 0.0894,6.933252 C 236.46695,70.52426 213.81843,56.585925 198.66105,51.012661 159.68503,36.681381 107.27118,36.689502 66.067593,51.033044 50.54736,56.435912 31.560192,67.367896 22.102117,76.346471 -4.8691044,101.95031 4.9807546,140.32197 44.339199,162.9739 82.2329,184.78285 133.67349,194.26541 181.9238,188.33628 Z m -63.45914,-8.87638 C 95.880328,175.89286 69.279467,166.72192 52.651188,156.77019 41.204332,149.91951 35.952733,145.28887 28.521479,135.49397 19.56973,123.6948 19.022834,122.25296 19.018533,110.44306 19.0144,99.186437 19.77005,96.908497 26.446497,88.046412 53.03167,52.758813 129.01163,37.392427 186.38694,55.699647 c 28.98631,9.248931 55.59291,30.079819 70.56557,55.247383 6.53407,10.98299 6.84877,12.3307 4.56916,19.56809 -7.5786,24.061 -34.61536,42.36936 -72.37774,49.01165 -16.03431,2.82041 -52.6194,2.78587 -70.67944,-0.0667 z"
       style="fill:#000000;stroke-width:6.81653"
       id="path1-7" />
  </g>
</svg>
