<?xml version="1.0" encoding="UTF-8" standalone="no"?>
<!-- Created with Inkscape (http://www.inkscape.org/) -->

<svg
   width="272.81638mm"
   height="130.42229mm"
   viewBox="0 0 272.81638 130.42229"
   version="1.1"
   id="svg1"
   inkscape:export-filename="circle1.png"
   inkscape:export-xdpi="96"
   inkscape:export-ydpi="96"
   xmlns:inkscape="http://www.inkscape.org/namespaces/inkscape"
   xmlns:sodipodi="http://sodipodi.sourceforge.net/DTD/sodipodi-0.dtd"
   xmlns="http://www.w3.org/2000/svg"
   xmlns:svg="http://www.w3.org/2000/svg">
  <sodipodi:namedview
     id="namedview1"
     pagecolor="#ffffff"
     bordercolor="#000000"
     borderopacity="0.25"
     inkscape:showpageshadow="2"
     inkscape:pageopacity="0.0"
     inkscape:pagecheckerboard="0"
     inkscape:deskcolor="#d1d1d1"
     inkscape:document-units="mm">
    <inkscape:page
       x="0"
       y="0"
       width="272.81638"
       height="130.42229"
       id="page2"
       margin="0"
       bleed="0" />
  </sodipodi:namedview>
  <defs
     id="defs1" />
  <g
     inkscape:label="Layer 1"
     inkscape:groupmode="layer"
     id="layer1"
     transform="translate(-12.990949,-36.310253)">
    <path
       d="m 180.21747,165.52816 c 53.23025,-3.82796 91.56428,-18.54197 102.51226,-39.34786 4.41663,-8.39345 4.0516,-20.67915 -0.91489,-30.794028 -9.82194,-20.00369 -39.07446,-39.638214 -74.23541,-49.827466 -28.92541,-8.382232 -35.8689,-9.248551 -74.12855,-9.248551 -38.800685,0 -51.220983,1.623896 -72.364978,9.46123 -10.915293,4.045915 -13.388352,6.256232 -11.099853,9.920704 1.38008,2.20986 0.55817,3.035617 -7.458259,7.493213 C 30.079564,70.10729 17.737332,82.86443 14.730522,91.91704 2.7150407,128.0923 54.08824,159.97779 133.45088,165.60255 c 21.46551,1.52137 24.64765,1.51631 46.76659,-0.0746 z m -63.43128,-8.59551 C 80.354632,152.15689 48.600367,140.52512 33.173055,126.30471 3.2893998,98.758942 27.763809,67.884973 90.246953,54.307141 106.19789,50.840937 127.5764,49.524833 137.47501,51.399724 c 5.48527,1.038958 7.79516,0.99211 9.00576,-0.182506 2.46856,-2.395265 0.40963,-4.385037 -6.99373,-6.759264 l -6.70685,-2.150832 16.58279,0.643804 c 47.11956,1.829427 97.00867,20.62069 118.25983,44.543771 7.5682,8.519681 10.63099,15.525213 10.66698,24.398723 0.0655,16.06028 -13.21499,27.60397 -42.22384,36.70282 -9.63549,3.02223 -36.70785,8.25848 -48.96013,9.46965 -13.98626,1.38257 -56.33365,0.70013 -70.31963,-1.13329 z M 58.983067,54.367064 c 0.910579,-1.473322 13.468787,-5.456333 16.696843,-5.295614 1.157176,0.05781 -1.819575,1.519502 -6.614974,3.248687 -10.004149,3.607399 -11.195796,3.849324 -10.081869,2.046927 z"
       style="fill:#000000;stroke-width:5.06976"
       id="path1" />
  </g>
</svg>
